<svg width="106" height="31" viewBox="0 0 106 31" fill="none" xmlns="http://www.w3.org/2000/svg">
<path d="M33.3403 28.5703C32.9028 28.5865 32.5543 28.5136 32.295 28.3515C32.0357 28.1894 31.8574 27.9787 31.7602 27.7194C31.6629 27.4763 31.6386 27.2251 31.6873 26.9658C31.7197 26.7065 31.825 26.4796 32.0033 26.2851C32.1816 26.0907 32.4247 25.9772 32.7326 25.9448C33.3646 25.8962 33.8184 25.7179 34.094 25.41C34.3857 25.1183 34.5315 24.6645 34.5315 24.0486V13.7169C34.5315 13.1172 34.6936 12.6634 35.0177 12.3555C35.3419 12.0314 35.7957 11.8693 36.3791 11.8693C36.9625 11.8693 37.4082 12.0314 37.7161 12.3555C38.0403 12.6634 38.2023 13.1172 38.2023 13.7169V23.7083C38.2023 24.7779 38.0241 25.6612 37.6675 26.3581C37.3272 27.055 36.8005 27.5817 36.0874 27.9382C35.3743 28.311 34.4586 28.5217 33.3403 28.5703ZM36.3548 9.87589C35.6903 9.87589 35.1717 9.72193 34.7989 9.414C34.4424 9.08987 34.2641 8.63608 34.2641 8.05264C34.2641 7.45299 34.4424 6.99921 34.7989 6.69128C35.1717 6.36715 35.6903 6.20508 36.3548 6.20508C37.0355 6.20508 37.5541 6.36715 37.9106 6.69128C38.2672 6.99921 38.4454 7.45299 38.4454 8.05264C38.4454 8.63608 38.2672 9.08987 37.9106 9.414C37.5541 9.72193 37.0355 9.87589 36.3548 9.87589ZM46.7944 24.2674C45.5141 24.2674 44.3958 24.0162 43.4396 23.5138C42.4996 23.0114 41.7703 22.2902 41.2517 21.3502C40.7331 20.4102 40.4738 19.3001 40.4738 18.0197C40.4738 17.0635 40.6197 16.2046 40.9114 15.4429C41.2031 14.6812 41.6245 14.0329 42.1755 13.4981C42.7427 12.9471 43.4153 12.5338 44.1932 12.2583C44.9712 11.9665 45.8382 11.8207 46.7944 11.8207C48.0747 11.8207 49.1849 12.0719 50.1249 12.5743C51.0811 13.0767 51.8185 13.7898 52.3371 14.7136C52.8719 15.6374 53.1393 16.7394 53.1393 18.0197C53.1393 18.9921 52.9854 19.8592 52.6774 20.6209C52.3857 21.3826 51.9643 22.039 51.4133 22.59C50.8623 23.141 50.1897 23.5624 49.3956 23.8541C48.6177 24.1297 47.7506 24.2674 46.7944 24.2674ZM46.7944 21.5204C47.3292 21.5204 47.7911 21.3907 48.1801 21.1314C48.569 20.8721 48.877 20.4913 49.1039 19.9888C49.3307 19.4702 49.4442 18.8139 49.4442 18.0197C49.4442 16.8367 49.2011 15.9696 48.7149 15.4186C48.2287 14.8513 47.5885 14.5677 46.7944 14.5677C46.2758 14.5677 45.8139 14.6893 45.4087 14.9324C45.0198 15.1755 44.7118 15.5563 44.485 16.0749C44.2743 16.5773 44.1689 17.2256 44.1689 18.0197C44.1689 19.2028 44.412 20.0861 44.8982 20.6695C45.3844 21.2368 46.0165 21.5204 46.7944 21.5204ZM57.2202 24.2188C56.6205 24.2188 56.1586 24.0567 55.8345 23.7326C55.5266 23.4085 55.3726 22.9466 55.3726 22.3469V13.7169C55.3726 13.1172 55.5266 12.6634 55.8345 12.3555C56.1586 12.0314 56.6043 11.8693 57.1715 11.8693C57.755 11.8693 58.2007 12.0314 58.5086 12.3555C58.8165 12.6634 58.9705 13.1172 58.9705 13.7169V15.1025L58.7031 14.3003C59.0758 13.5062 59.6269 12.8984 60.3562 12.4771C61.1017 12.0395 61.9444 11.8207 62.8844 11.8207C63.8406 11.8207 64.6266 12.0071 65.2425 12.3798C65.8583 12.7364 66.3202 13.2874 66.6281 14.0329C66.9361 14.7622 67.09 15.6941 67.09 16.8285V22.3469C67.09 22.9466 66.928 23.4085 66.6038 23.7326C66.2959 24.0567 65.8421 24.2188 65.2425 24.2188C64.659 24.2188 64.2052 24.0567 63.8811 23.7326C63.5732 23.4085 63.4192 22.9466 63.4192 22.3469V16.9987C63.4192 16.1722 63.2653 15.5806 62.9573 15.2241C62.6656 14.8513 62.2118 14.665 61.596 14.665C60.818 14.665 60.1941 14.9081 59.7241 15.3943C59.2703 15.8805 59.0434 16.5287 59.0434 17.3391V22.3469C59.0434 23.5948 58.4357 24.2188 57.2202 24.2188ZM75.6891 24.2674C74.5709 24.2674 73.6309 24.081 72.8692 23.7083C72.1237 23.3355 71.5645 22.7926 71.1918 22.0795C70.8352 21.3664 70.6569 20.4669 70.6569 19.3811V14.8108H69.6359C69.1821 14.8108 68.8256 14.6893 68.5663 14.4462C68.3232 14.2031 68.2016 13.8708 68.2016 13.4495C68.2016 12.9957 68.3232 12.6553 68.5663 12.4284C68.8256 12.1853 69.1821 12.0638 69.6359 12.0638H70.6569V10.2162C70.6569 9.60038 70.819 9.13849 71.1431 8.83056C71.4673 8.50643 71.9211 8.34436 72.5045 8.34436C73.1042 8.34436 73.5579 8.50643 73.8659 8.83056C74.1738 9.13849 74.3278 9.60038 74.3278 10.2162V12.0638H76.6372C77.091 12.0638 77.4394 12.1853 77.6825 12.4284C77.9256 12.6553 78.0472 12.9957 78.0472 13.4495C78.0472 13.8708 77.9256 14.2031 77.6825 14.4462C77.4394 14.6893 77.091 14.8108 76.6372 14.8108H74.3278V19.2352C74.3278 19.9159 74.4817 20.4264 74.7896 20.7668C75.1138 21.1071 75.6243 21.2773 76.3212 21.2773C76.5643 21.2773 76.7912 21.253 77.0019 21.2044C77.2125 21.1557 77.407 21.1233 77.5853 21.1071C77.8122 21.0909 77.9986 21.1638 78.1444 21.3259C78.2903 21.4718 78.3632 21.804 78.3632 22.3226C78.3632 22.7116 78.2984 23.0519 78.1687 23.3436C78.0391 23.6353 77.8122 23.846 77.4881 23.9757C77.2774 24.0567 76.9857 24.1216 76.6129 24.1702C76.2564 24.235 75.9484 24.2674 75.6891 24.2674ZM81.555 24.2188C80.9392 24.2188 80.4692 24.0567 80.1451 23.7326C79.8209 23.4085 79.6589 22.9466 79.6589 22.3469V13.7169C79.6589 13.1172 79.8128 12.6634 80.1208 12.3555C80.4449 12.0314 80.8906 11.8693 81.4578 11.8693C82.0412 11.8693 82.4869 12.0314 82.7949 12.3555C83.1028 12.6634 83.2567 13.1172 83.2567 13.7169V14.981H83.0136C83.2081 14.0086 83.6376 13.255 84.3021 12.7202C84.9665 12.1853 85.8255 11.8855 86.8789 11.8207C87.2841 11.7883 87.592 11.8936 87.8027 12.1367C88.0296 12.3636 88.1512 12.7445 88.1674 13.2793C88.1998 13.7817 88.0944 14.1788 87.8513 14.4705C87.6244 14.7622 87.2355 14.9405 86.6845 15.0053L86.1253 15.0539C85.2015 15.135 84.5128 15.4024 84.059 15.8561C83.6214 16.3099 83.4026 16.9663 83.4026 17.8253V22.3469C83.4026 22.9466 83.2405 23.4085 82.9164 23.7326C82.6085 24.0567 82.1547 24.2188 81.555 24.2188ZM95.2007 24.2674C93.9204 24.2674 92.8022 24.0162 91.846 23.5138C90.906 23.0114 90.1767 22.2902 89.6581 21.3502C89.1395 20.4102 88.8801 19.3001 88.8801 18.0197C88.8801 17.0635 89.026 16.2046 89.3177 15.4429C89.6094 14.6812 90.0308 14.0329 90.5818 13.4981C91.1491 12.9471 91.8217 12.5338 92.5996 12.2583C93.3775 11.9665 94.2446 11.8207 95.2007 11.8207C96.4811 11.8207 97.5912 12.0719 98.5312 12.5743C99.4874 13.0767 100.225 13.7898 100.743 14.7136C101.278 15.6374 101.546 16.7394 101.546 18.0197C101.546 18.9921 101.392 19.8592 101.084 20.6209C100.792 21.3826 100.371 22.039 99.8196 22.59C99.2686 23.141 98.596 23.5624 97.8019 23.8541C97.024 24.1297 96.1569 24.2674 95.2007 24.2674ZM95.2007 21.5204C95.7356 21.5204 96.1975 21.3907 96.5864 21.1314C96.9754 20.8721 97.2833 20.4913 97.5102 19.9888C97.7371 19.4702 97.8505 18.8139 97.8505 18.0197C97.8505 16.8367 97.6074 15.9696 97.1212 15.4186C96.635 14.8513 95.9949 14.5677 95.2007 14.5677C94.6821 14.5677 94.2202 14.6893 93.8151 14.9324C93.4261 15.1755 93.1182 15.5563 92.8913 16.0749C92.6806 16.5773 92.5753 17.2256 92.5753 18.0197C92.5753 19.2028 92.8184 20.0861 93.3046 20.6695C93.7908 21.2368 94.4228 21.5204 95.2007 21.5204Z" fill="#06B6D4"/>
<path d="M12.3855 29.1875C13.5533 29.1875 14.5 28.2407 14.5 27.0729C14.5 25.905 13.5533 24.9583 12.3855 24.9583C11.2176 24.9583 10.2709 25.905 10.2709 27.0729C10.2709 28.2407 11.2176 29.1875 12.3855 29.1875Z" fill="#06B6D4"/>
<path d="M22.6563 29.1875C23.8242 29.1875 24.7709 28.2407 24.7709 27.0729C24.7709 25.905 23.8242 24.9583 22.6563 24.9583C21.4885 24.9583 20.5417 25.905 20.5417 27.0729C20.5417 28.2407 21.4885 29.1875 22.6563 29.1875Z" fill="#06B6D4"/>
<path d="M15.1042 17.7083H24.7709M3.02087 5.625L8.45837 9.25L11.4792 22.5417H23.5625L26.5834 12.2708H15.1042L3.02087 5.625Z" stroke="#06B6D4" stroke-width="4" stroke-linecap="round" stroke-linejoin="round"/>
</svg>
